<svg width="48" height="47" viewBox="0 0 48 47" fill="none" xmlns="http://www.w3.org/2000/svg">
<path fill-rule="evenodd" clip-rule="evenodd" d="M18.0714 41.6288C18.0714 42.8663 18.0602 44.2163 18.0602 45.4538C18.0602 45.7463 17.9139 46.0275 17.6777 46.2075C17.4414 46.3875 17.1264 46.4325 16.8452 46.3538C7.3952 43.3163 0.543945 34.4513 0.543945 24C0.543945 11.0513 11.0514 0.543762 24.0002 0.543762C36.9489 0.543762 47.4564 11.0513 47.4564 24C47.4564 34.44 40.6164 43.2938 31.1889 46.3313C30.9077 46.4213 30.5927 46.365 30.3564 46.185C30.1202 46.005 29.9739 45.735 29.9739 45.4313C29.9514 42.675 29.9402 39.4238 29.9402 37.95C29.9402 36.4763 28.5002 35.2613 28.5002 35.2613C28.5002 35.2613 39.1314 33.9563 39.1314 24.7538C39.1314 18.915 36.8139 16.9463 36.8139 16.9463C37.3089 14.8538 37.2414 12.8625 36.7014 10.9725C36.6227 10.7025 36.3527 10.5225 36.0714 10.545C33.8102 10.7475 31.7402 11.5688 29.8614 13.065C29.8614 13.065 26.5427 12.1538 24.0114 12.1538C21.4802 12.1538 18.1614 13.065 18.1614 13.065C16.2827 11.58 14.2014 10.7475 11.9514 10.545C11.6702 10.5225 11.4002 10.7025 11.3214 10.9725C10.7814 12.8625 10.7139 14.8538 11.1977 16.9463C11.1977 16.9463 8.89145 18.915 8.89145 24.7538C8.89145 33.9563 19.5227 35.2613 19.5227 35.2613C19.5227 35.2613 18.0827 36.4763 18.0827 37.95V38.2875C17.2727 38.58 16.1702 38.85 14.9327 38.7713C11.5689 38.5463 11.1189 34.9238 9.7352 34.3388C8.7227 33.9113 7.7327 33.855 6.97895 33.9225C6.75395 33.945 6.57394 34.1025 6.51769 34.3163C6.46144 34.53 6.54019 34.755 6.72019 34.89C7.63144 35.5088 8.84645 36.3863 9.18395 37.0275C10.0952 38.7375 11.5014 41.4488 13.3127 41.7413C15.5177 42.1013 17.0927 41.8875 18.0939 41.6063L18.0714 41.6288Z" fill="white"/>
</svg>
