<svg width="63" height="63" viewBox="0 0 63 63" fill="none" xmlns="http://www.w3.org/2000/svg">
<path d="M26.2474 15.75H23.0954C22.7922 15.75 22.6406 15.9055 22.6406 16.2127V46.7873C22.6406 47.0964 22.7922 47.25 23.0974 47.25H26.2493C26.5545 47.25 26.7061 47.0964 26.7061 46.7873V40.0798L28.5784 38.2764L35.2918 46.9252C35.4729 47.1417 35.6856 47.25 35.9297 47.25H39.9952C40.2078 47.25 40.3298 47.189 40.3613 47.0649L40.2688 46.6023L31.4094 35.4532L39.9026 27.1274C40.0621 26.964 40.005 26.4797 39.5817 26.4797H35.3804C35.1678 26.4797 34.9552 26.588 34.7406 26.8045L26.7041 35.0378V16.2127C26.7041 15.9055 26.5525 15.75 26.2474 15.75Z" fill="white"/>
</svg>
