<svg width="75" height="75" viewBox="0 0 75 75" fill="none" xmlns="http://www.w3.org/2000/svg">
<path d="M63.9688 6.25001H11.0312C10.4362 6.24175 9.84532 6.35078 9.29239 6.5709C8.73947 6.79101 8.23532 7.11789 7.80874 7.53286C7.38216 7.94783 7.0415 8.44277 6.80622 8.98941C6.57094 9.53606 6.44565 10.1237 6.4375 10.7188V64.2813C6.44565 64.8763 6.57094 65.464 6.80622 66.0106C7.0415 66.5572 7.38216 67.0522 7.80874 67.4672C8.23532 67.8821 8.73947 68.209 9.29239 68.4291C9.84532 68.6492 10.4362 68.7583 11.0312 68.75H63.9688C64.5638 68.7583 65.1547 68.6492 65.7076 68.4291C66.2605 68.209 66.7647 67.8821 67.1913 67.4672C67.6178 67.0522 67.9585 66.5572 68.1938 66.0106C68.4291 65.464 68.5544 64.8763 68.5625 64.2813V10.7188C68.5544 10.1237 68.4291 9.53606 68.1938 8.98941C67.9585 8.44277 67.6178 7.94783 67.1913 7.53286C66.7647 7.11789 66.2605 6.79101 65.7076 6.5709C65.1547 6.35078 64.5638 6.24175 63.9688 6.25001ZM25.2812 58.5625H15.9063V30.4375H25.2812V58.5625ZM20.5938 26.5C19.3008 26.5 18.0608 25.9864 17.1466 25.0722C16.2324 24.1579 15.7188 22.9179 15.7188 21.625C15.7188 20.3321 16.2324 19.0921 17.1466 18.1779C18.0608 17.2636 19.3008 16.75 20.5938 16.75C21.2803 16.6721 21.9756 16.7402 22.634 16.9496C23.2924 17.1591 23.8992 17.5053 24.4146 17.9655C24.9299 18.4257 25.3423 18.9896 25.6246 19.6203C25.9069 20.2509 26.0529 20.9341 26.0529 21.625C26.0529 22.316 25.9069 22.9991 25.6246 23.6298C25.3423 24.2604 24.9299 24.8243 24.4146 25.2845C23.8992 25.7447 23.2924 26.0909 22.634 26.3004C21.9756 26.5098 21.2803 26.5779 20.5938 26.5ZM59.0938 58.5625H49.7188V43.4688C49.7188 39.6875 48.375 37.2188 44.9688 37.2188C43.9146 37.2265 42.8881 37.5571 42.0276 38.1662C41.1671 38.7752 40.514 39.6334 40.1563 40.625C39.9117 41.3595 39.8057 42.1331 39.8438 42.9063V58.5313H30.4688C30.4688 58.5313 30.4688 32.9688 30.4688 30.4063H39.8438V34.375C40.6954 32.8972 41.9341 31.6798 43.4264 30.8538C44.9187 30.0278 46.608 29.6245 48.3125 29.6875C54.5625 29.6875 59.0938 33.7188 59.0938 42.375V58.5625Z" fill="black"/>
</svg>
