<svg width="75" height="75" viewBox="0 0 75 75" fill="none" xmlns="http://www.w3.org/2000/svg">
<path d="M12.5 62.5C10.7813 62.5 9.29688 61.901 8.04688 60.7031C6.84896 59.4531 6.25 57.9688 6.25 56.25V18.75C6.25 17.0313 6.84896 15.5729 8.04688 14.375C9.29688 13.125 10.7813 12.5 12.5 12.5H62.5C64.2188 12.5 65.6771 13.125 66.875 14.375C68.125 15.5729 68.75 17.0313 68.75 18.75V56.25C68.75 57.9688 68.125 59.4531 66.875 60.7031C65.6771 61.901 64.2188 62.5 62.5 62.5H12.5ZM37.5 40.625L62.5 25V18.75L37.5 34.375L12.5 18.75V25L37.5 40.625Z" fill="#1D1B20"/>
</svg>
