<svg width="63" height="63" viewBox="0 0 63 63" fill="none" xmlns="http://www.w3.org/2000/svg">
<path d="M31.5 0C48.897 0 63 14.103 63 31.5C63 48.897 48.897 63 31.5 63C14.103 63 0 48.897 0 31.5C0 14.103 14.103 0 31.5 0ZM15.5918 18.4385V50H20.1807V18.4385H15.5918ZM26.8408 18.4385L26.6934 50H39.126C49.6349 50 55.9998 42.3311 56 34.2197C56 26.8456 50.8191 18.4385 39.126 18.4385H26.8408ZM38.5342 22.7158C47.415 22.7158 51.4111 28.0255 51.4111 34.3672C51.411 38.2018 49.0431 46.0174 38.6826 46.0176H31.4297L31.5771 22.7158H38.5342ZM17.96 9C17.175 9.00009 16.4223 9.31117 15.8672 9.86426C15.3122 10.4173 15.0001 11.1671 15 11.9492C15 13.5714 16.332 14.8992 17.96 14.8994C19.5881 14.8994 20.9209 13.5715 20.9209 11.9492C20.9207 10.3271 19.588 9 17.96 9Z" fill="#0B0B0B"/>
</svg>
